<?xml version="1.0" standalone="no"?><!DOCTYPE svg PUBLIC "-//W3C//DTD SVG 1.1//EN" "http://www.w3.org/Graphics/SVG/1.1/DTD/svg11.dtd"><svg t="1612260525056" class="icon" viewBox="0 0 1024 1024" version="1.1" xmlns="http://www.w3.org/2000/svg" p-id="1200" xmlns:xlink="http://www.w3.org/1999/xlink" width="200" height="200"><defs><style type="text/css"></style></defs><path d="M720 938.666667H176a123.946667 123.946667 0 0 1-99.626667-49.706667 120.32 120.32 0 0 1-19.84-106.666667 405.333333 405.333333 0 0 1 231.893334-261.546666 260.266667 260.266667 0 0 1-46.72-45.226667 265.6 265.6 0 1 1 471.68-158.933333A269.653333 269.653333 0 0 1 443.306667 573.866667 320 320 0 0 0 138.453333 805.973333a34.773333 34.773333 0 0 0 6.186667 31.573334 38.826667 38.826667 0 0 0 31.36 15.786666h544a38.826667 38.826667 0 0 0 31.36-15.786666 35.2 35.2 0 0 0 6.186667-31.786667 322.773333 322.773333 0 0 0-35.413334-79.146667 42.666667 42.666667 0 0 1-1.066666-42.666666 42.666667 42.666667 0 0 1 37.333333-21.333334h132.266667A170.666667 170.666667 0 0 0 725.333333 533.333333a42.666667 42.666667 0 0 1 0-85.333333 128 128 0 0 0 0-256 42.666667 42.666667 0 0 1 0-85.333333 213.333333 213.333333 0 0 1 133.973334 379.306666A256 256 0 0 1 981.333333 704a42.666667 42.666667 0 0 1-42.666666 42.666667h-111.36c4.48 11.52 8.533333 23.253333 12.16 35.413333a120.746667 120.746667 0 0 1-19.84 106.666667A123.946667 123.946667 0 0 1 720 938.666667zM448 128a202.88 202.88 0 0 0-25.386667 1.706667 180.48 180.48 0 0 0 11.52 358.4 16.213333 16.213333 0 0 1 4.48 0h3.84a184.533333 184.533333 0 0 0 186.24-174.506667A180.266667 180.266667 0 0 0 448 128z" p-id="1201" fill="#bfbfbf"></path></svg>